# AST/ASF file generated using VICON BodyLanguage
# -----------------------------------------------
:version 1.10
:name VICON
:units
  mass 1.0
  length 0.45
  angle deg
:documentation
   .ast/.asf automatically generated from VICON data using
   VICON BodyBuilder and BodyLanguage model FoxedUp or BRILLIANT.MOD
:root
   order TX TY TZ RX RY RZ
   axis XYZ
   position 0 0 0  
   orientation 0 0 0 
:bonedata
  begin
     id 1 
     name lhipjoint
     direction 0.57768 -0.667037 0.470475 
     length 2.36008 
     axis 0 0 0  XYZ
  end
  begin
     id 2 
     name lfemur
     direction 0.34202 -0.939693 0  
     length 6.97235  
     axis 0 0 20  XYZ
    dof rx ry rz
    limits (-160.0 20.0)
           (-70.0 70.0)
           (-60.0 70.0)
  end
  begin
     id 3 
     name ltibia
     direction 0.34202 -0.939693 0   
     length 6.93428   
     axis 0 0 20   XYZ
    dof rx
    limits (-10.0 170.0)
  end
  begin
     id 4 
     name lfoot
     direction 0.133018 -0.365463 0.921272   
     length 2.18603   
     axis -90 7.62852e-016 20   XYZ
    dof rx rz
    limits (-45.0 90.0)
           (-70.0 20.0)
  end
  begin
     id 5 
     name ltoes
     direction 1.53519e-011 -4.22055e-011 1   
     length 1.07924   
     axis -90 7.62852e-016 20   XYZ
    dof rx
    limits (-90.0 20.0)
  end
  begin
     id 6 
     name rhipjoint
     direction -0.577712 -0.667019 0.470462   
     length 2.36015  
     axis 0 0 0  XYZ 
  end
  begin
     id 7 
     name rfemur
     direction -0.34202 -0.939693 0   
     length 6.71195   
     axis 0 0 -20   XYZ
    dof rx ry rz
    limits (-160.0 20.0)
           (-70.0 70.0)
           (-70.0 60.0)
  end
  begin
     id 8 
     name rtibia
     direction -0.34202 -0.939693 0   
     length 7.04592   
     axis 0 0 -20   XYZ
    dof rx
    limits (-10.0 170.0)
 end
 begin
     id 9 
     name rfoot
     direction -0.113796 -0.312651 0.943027   
     length 2.03846  
     axis -90 -7.62852e-016 -20   XYZ
    dof rx rz
    limits (-45.0 90.0)
           (-20.0 70.0)
  end
  begin
     id 10 
     name rtoes
     direction -1.53586e-011 -4.218e-011 1   
     length 1.01562   
     axis -90 -7.62852e-016 -20   XYZ
    dof rx
    limits (-90.0 20.0)
  end
  begin
     id 11 
     name lowerback
     direction -0.0417299 0.991937 -0.119667   
     length 2.05257   
     axis 0 0 0   XYZ
    dof rx ry rz
    limits (-20.0 45.0)
           (-30.0 30.0)
           (-30.0 30.0)
  end
  begin
     id 12 
     name upperback
     direction -0.00017666 0.999999 0.00105178   
     length 2.05693   
     axis 0 0 0   XYZ
    dof rx ry rz
    limits (-20.0 45.0)
           (-30.0 30.0)
           (-30.0 30.0)
  end
  begin
     id 13 
     name thorax
     direction 0.0185169 0.998203 0.0569866   
     length 2.0932   
     axis 0 0 0   XYZ
    dof rx ry rz
    limits (-20.0 45.0)
           (-30.0 30.0)
           (-30.0 30.0)
  end
  begin
     id 14 
     name lowerneck
     direction -0.0212406 0.982645 0.184277   
     length 1.72509   
     axis 0 0 0   XYZ
    dof rx ry rz
    limits (-20.0 45.0)
           (-30.0 30.0)
           (-30.0 30.0)
  end
  begin
     id 15 
     name upperneck
     direction 0.00528579 0.965323 -0.261004   
     length 1.76294   
     axis 0 0 0   XYZ
    dof rx ry rz
    limits (-20.0 45.0)
           (-30.0 30.0)
           (-30.0 30.0)
  end
  begin
     id 16
     name head
     direction 0.00695421 0.994078 -0.108445  
     length 1.78678  
     axis 0 0 0   XYZ
    dof rx ry rz
    limits (-20.0 45.0)
           (-30.0 30.0)
           (-30.0 30.0)
  end
  begin
     id 17 
     name lclavicle
     direction 0.97277 0.211305 -0.095232  
     length 3.84823  
     axis 0 0 0   XYZ
    dof ry rz
    limits (-20.0 10.0)
           (0.0 20.0)
  end
  begin
     id 18 
     name lhumerus
     direction 1 -4.48957e-011 -1.98313e-027   
     length 4.97185   
     axis 180 -30 -90   XYZ
    dof rx ry rz
    limits (-60.0 90.0)
           (-90.0 90.0)
           (-90.0 90.0)
  end
  begin
     id 19
     name lradius
     direction 1 -4.4898e-011 7.31063e-027   
     length 3.35811   
     axis 180 -30 -90   XYZ
    dof rx
    limits (-10.0 170.0)
  end
  begin
     id 20
     name lwrist
     direction 1 -4.48938e-011 9.95048e-027   
     length 1.67905   
     axis -8.75986e-015 90 90   XYZ
    dof ry
    limits (-180.0 0.0)
 end
  begin
     id 21 
     name lhand
     direction 1 -4.4901e-011 1.9901e-026   
     length 0.622776   
     axis -1.26985e-014 90 90   XYZ
    dof rx rz
    limits (-90.0 90.0)
           (-45.0 45.0)
  end
  begin
     id 22 
     name lfingers
     direction 1 -4.48961e-011 3.98019e-026   
     length 0.502098   
     axis -2.5397e-014 90 90   XYZ
    dof rx
    limits (0.0 90.0)
  end
  begin
     id 23
     name lthumb
     direction 0.707107 -6.34933e-011 0.707107   
     length 0.720915   
     axis -90 45 2.85299e-015   XYZ
    dof rx rz
    limits (-45.0 45.0)
           (-45.0 45.0)
  end
  begin
     id 24 
     name rclavicle
     direction -0.990867 0.133739 -0.0172226   
     length 3.78845  
     axis 0 0 0   XYZ 
    dof ry rz
    limits (-10.0 20.0)
           (-20.0 0.0)
  end
  begin
     id 25 
     name rhumerus
     direction -1 -4.48972e-011 -1.99267e-027  
     length 4.96493   
     axis 180 30 90   XYZ
    dof rx ry rz
    limits (-90.0 60.0)
           (-90.0 90.0)
           (-90.0 90.0)
  end
  begin
     id 26 
     name rradius
     direction -1 -4.48969e-011 8.96093e-027   
     length 3.34929   
     axis 180 30 90   XYZ
    dof rx
    limits (-10.0 170.0)
  end
  begin
     id 27 
     name rwrist
     direction -1 -4.48953e-011 9.95048e-027   
     length 1.67464   
     axis -8.75986e-015 -90 -90   XYZ
    dof ry
    limits (-180.0 0.0)
  end
  begin
     id 28
     name rhand
     direction -1 -4.49001e-011 1.9901e-026   
     length 0.638041   
     axis -1.26985e-014 -90 -90   XYZ
    dof rx rz
    limits (-90.0 90.0)
           (-45.0 45.0)
  end
  begin
     id 29
     name rfingers
     direction -1 -4.48967e-011 3.98019e-026   
     length 0.514405   
     axis -2.5397e-014 -90 -90   XYZ
    dof rx
    limits (0.0 90.0)
  end
  begin
     id 30
     name rthumb
     direction -0.707107 -6.34904e-011 0.707107   
     length 0.738586   
     axis -90 -45 -2.85299e-015   XYZ
    dof rx rz
    limits (-45.0 45.0)
           (-45.0 45.0)
  end
:hierarchy
  begin
    root lhipjoint rhipjoint lowerback
    lhipjoint lfemur
    lfemur ltibia
    ltibia lfoot
    lfoot ltoes
    rhipjoint rfemur
    rfemur rtibia
    rtibia rfoot
    rfoot rtoes
    lowerback upperback
    upperback thorax
    thorax lowerneck lclavicle rclavicle
    lowerneck upperneck
    upperneck head
    lclavicle lhumerus
    lhumerus lradius
    lradius lwrist
    lwrist lhand lthumb
    lhand lfingers
    rclavicle rhumerus
    rhumerus rradius
    rradius rwrist
    rwrist rhand rthumb
    rhand rfingers
  end

#!OML:ASF E:\Mandelcareful walks\Project 1\Capture day 1\Session 1\Subject1.ASF
:FULLY-SPECIFIED
:DEGREES
296
root -3.56552 11.7219 0.756155 49.1964 63.5994 27.3732
lowerback 42.5448 0.882103 2.30522
upperback 10.783 3.52378 3.25214
thorax -8.18554 1.98751 0.765388
lowerneck -27.1728 -13.8146 -10.9452
upperneck 17.2422 -16.8248 8.51449
head 11.6943 -7.33648 1.68107
rclavicle -4.77083e-014 2.38542e-014
rhumerus 58.2978 -23.0885 -80.2775
rradius 29.2548
rwrist -34.6327
rhand -19.9432 -41.3289
rfingers 7.12502
rthumb 6.39461 -71.2123
lclavicle -4.77083e-014 2.38542e-014
lhumerus -19.9716 -0.182266 69.2391
lradius 40.9927
lwrist 23.5919
lhand -28.7153 -19.512
lfingers 7.12502
lthumb -2.07676 10.4577
rfemur -94.0493 -17.3699 10.0227
rtibia 109.051
rfoot -30.8119 6.3054
rtoes 5.75933
lfemur -76.9815 39.5705 -20.6625
ltibia 92.3804
lfoot -21.8753 3.42803
ltoes -26.2217
297
root -3.56216 11.7095 0.761554 48.9468 63.4573 27.2019
lowerback 42.4765 0.918827 2.28117
upperback 10.9251 3.56301 3.28698
thorax -8.01049 2.01153 0.803919
lowerneck -27.1721 -13.8132 -10.9966
upperneck 16.9637 -16.8459 8.76017
head 11.6224 -7.327 1.77589
rclavicle 2.22639e-014 2.62396e-014
rhumerus 58.8433 -23.0388 -80.4097
rradius 29.3148
rwrist -34.8779
rhand -19.818 -41.4924
rfingers 7.12502
rthumb 6.51549 -71.3722
lclavicle 2.22639e-014 2.62396e-014
lhumerus -19.6123 -0.303112 69.233
lradius 40.7332
lwrist 23.4461
lhand -29.0365 -19.9446
lfingers 7.12502
lthumb -2.387 10.0218
rfemur -94.0939 -17.3483 10.0807
rtibia 109.159
rfoot -30.7622 6.44543
rtoes 5.9968
lfemur -76.8329 39.7276 -20.5202
ltibia 92.488
lfoot -21.9409 3.4601
ltoes -26.7285
298
root -3.56176 11.6981 0.768521 48.5663 63.285 26.9222
lowerback 42.6711 1.03141 2.29334
upperback 10.9037 3.70377 3.2584
thorax -8.08906 2.07337 0.704833
lowerneck -27.2474 -13.7881 -10.7356
upperneck 16.9756 -16.8649 8.60746
head 11.6007 -7.33563 1.67812
rclavicle 7.31528e-014 6.75868e-014
rhumerus 59.0167 -23.0155 -80.2535
rradius 29.433
rwrist -35.1254
rhand -19.5418 -41.2591
rfingers 7.12502
rthumb 6.78218 -71.1305
lclavicle 7.31528e-014 6.75868e-014
lhumerus -19.3465 -0.716848 69.1568
lradius 40.6031
lwrist 23.3486
lhand -29.2557 -20.0379
lfingers 7.12502
lthumb -2.59867 9.92601
rfemur -94.11 -17.2385 10.1488
rtibia 109.301
rfoot -30.6741 6.68912
rtoes 6.33136
lfemur -76.6705 39.9833 -20.3585
ltibia 92.5965
lfoot -21.9661 3.48331
ltoes -27.4494
299
root -3.55963 11.6885 0.766901 48.5638 63.2071 27.0737
lowerback 42.9199 1.00744 2.43688
upperback 10.8597 3.73702 3.18428
thorax -8.19573 2.08876 0.532616
lowerneck -27.3823 -13.7702 -10.4786
upperneck 17.105 -16.8601 8.32092
head 11.6165 -7.34504 1.53382
rclavicle 1.27222e-014 2.3059e-014
rhumerus 59.4942 -22.8825 -80.4433
rradius 29.3248
rwrist -34.8909
rhand -19.7504 -41.206
rfingers 7.12502
rthumb 6.58074 -71.0838
lclavicle 1.27222e-014 2.3059e-014
lhumerus -19.037 -0.997795 69.1151
lradius 40.5708
lwrist 23.3384
lhand -28.9068 -19.5837
lfingers 7.12502
lthumb -2.26173 10.3841
rfemur -94.0781 -17.4654 10.0986
rtibia 109.468
rfoot -30.6005 7.04921
rtoes 6.54206
lfemur -76.5249 39.9611 -20.3511
ltibia 92.7104
lfoot -22.027 3.61666
ltoes -28.2472
300
root -3.55559 11.6709 0.763702 48.7811 63.1228 27.3344
lowerback 42.9077 0.991792 2.49244
upperback 10.8724 3.73033 3.10055
thorax -8.16801 2.08943 0.418567
lowerneck -27.4976 -13.7245 -10.4118
upperneck 17.1651 -16.7799 8.18611
head 11.63 -7.31613 1.48798
rclavicle 6.36111e-014 3.02153e-014
rhumerus 59.9488 -22.5776 -80.5238
rradius 29.3125
rwrist -34.7904
rhand -19.8963 -41.3428
rfingers 7.12502
rthumb 6.43997 -71.2249
lclavicle 6.36111e-014 3.02153e-014
lhumerus -18.7695 -1.09811 69.0437
lradius 40.6912
lwrist 23.4142
lhand -28.5476 -19.4697
lfingers 7.12502
lthumb -1.91477 10.5015
rfemur -94.2171 -17.7124 9.96346
rtibia 109.667
rfoot -30.5318 7.41488
rtoes 7.1483
lfemur -76.6093 39.9455 -20.5057
ltibia 92.8991
lfoot -22.0571 3.73187
ltoes -28.7402
301
root -3.55483 11.6468 0.76409 48.9916 63.1612 27.4642
lowerback 42.8002 1.05409 2.54247
upperback 10.815 3.81774 3.12379
thorax -8.20091 2.12526 0.382078
lowerneck -27.4777 -13.6594 -10.4642
upperneck 17.1952 -16.6266 8.01424
head 11.6091 -7.27249 1.46789
rclavicle 3.18055e-014 9.54166e-015
rhumerus 60.269 -22.3245 -80.497
rradius 29.2509
rwrist -34.7593
rhand -19.2948 -40.9508
rfingers 7.12502
rthumb 7.02062 -70.8144
lclavicle 3.18055e-014 9.54166e-015
lhumerus -18.6601 -1.28059 69.0247
lradius 40.8735
lwrist 23.4874
lhand -28.518 -20.0573
lfingers 7.12502
lthumb -1.88618 9.91406
rfemur -94.4959 -17.8745 9.97876
rtibia 109.894
rfoot -30.5 7.63531
rtoes 7.79869
lfemur -76.9276 39.9442 -20.5964
ltibia 93.1267
lfoot -21.9832 3.83071
ltoes -29.0456
302
root -3.55907 11.6236 0.768184 49.2155 63.1749 27.6388
lowerback 42.7723 1.19771 2.4678
upperback 10.7453 3.95508 3.14587
thorax -8.27822 2.18246 0.384905
lowerneck -27.4814 -13.5907 -10.4269
upperneck 17.2723 -16.4973 7.81291
head 11.6016 -7.23541 1.41767
rclavicle 6.67916e-014 4.45278e-014
rhumerus 60.617 -22.1513 -80.6255
rradius 29.0828
rwrist -34.7431
rhand -18.9469 -40.7249
rfingers 7.12502
rthumb 7.35636 -70.577
lclavicle 6.67916e-014 4.45278e-014
lhumerus -18.5025 -1.40403 69.0015
lradius 40.9664
lwrist 23.4517
lhand -28.5035 -20.153
lfingers 7.12502
lthumb -1.87221 9.81858
rfemur -94.7867 -17.9304 10.0058
rtibia 110.133
rfoot -30.5577 7.35863
rtoes 6.95395
lfemur -77.2042 39.9534 -20.7057
ltibia 93.3228
lfoot -21.8867 3.98604
ltoes -29.3864
303
root -3.56416 11.6045 0.773047 49.5134 63.252 28.0238
lowerback 42.9073 1.30664 2.41598
upperback 10.6971 4.06966 3.12892
thorax -8.37351 2.23302 0.340642
lowerneck -27.5639 -13.5334 -10.2991
upperneck 17.3746 -16.4237 7.64869
head 11.6186 -7.20938 1.35195
rclavicle -3.81667e-014 1.74931e-014
rhumerus 61.113 -22.0837 -81.0128
rradius 28.8099
rwrist -34.3072
rhand -19.1255 -41.1758
rfingers 7.12502
rthumb 7.18405 -71.0338
lclavicle -3.81667e-014 1.74931e-014
lhumerus -18.2957 -1.63015 68.9664
lradius 41.1464
lwrist 23.5453
lhand -28.6383 -19.66
lfingers 7.12502
lthumb -2.00239 10.3104
rfemur -94.9323 -18.0211 9.97669
rtibia 110.392
rfoot -30.6857 6.74839
rtoes 5.25899
lfemur -77.291 39.8554 -20.7522
ltibia 93.5013
lfoot -21.8169 4.06722
ltoes -29.4615
304
root -3.56642 11.5879 0.776781 49.7777 63.5356 28.4141
lowerback 43.1176 1.34318 2.5566
upperback 10.6193 4.19171 3.17453
thorax -8.51649 2.28483 0.258855
lowerneck -27.515 -13.4926 -10.2569
upperneck 17.3972 -16.3356 7.44785
head 11.5854 -7.19408 1.29562
rclavicle -2.22639e-014 6.36111e-014
rhumerus 61.4904 -22.0009 -81.2017
rradius 28.5446
rwrist -33.5997
rhand -18.7634 -41.2547
rfingers 7.12502
rthumb 7.53356 -71.1005
lclavicle -2.22639e-014 6.36111e-014
lhumerus -18.1267 -1.9068 68.9858
lradius 41.4245
lwrist 23.7264
lhand -28.6994 -19.3956
lfingers 7.12502
lthumb -2.06139 10.5742
rfemur -94.9243 -18.2014 10.0342
rtibia 110.649
rfoot -30.8404 6.31578
rtoes 4.49879
lfemur -77.3363 39.6494 -20.625
ltibia 93.6758
lfoot -21.7909 4.09511
ltoes -29.7215
305
root -3.56809 11.57 0.779614 50.0554 63.8181 28.7881
lowerback 43.2898 1.36684 2.66075
upperback 10.553 4.28108 3.21013
thorax -8.63675 2.32241 0.199675
lowerneck -27.5121 -13.4519 -10.1921
upperneck 17.4633 -16.2502 7.22876
head 11.5732 -7.17806 1.22604
rclavicle -3.18055e-015 2.70347e-014
rhumerus 61.7301 -21.7776 -81.2332
rradius 28.334
rwrist -33.2407
rhand -17.6371 -40.1563
rfingers 7.12502
rthumb 8.62055 -69.9603
lclavicle -3.18055e-015 2.70347e-014
lhumerus -17.8696 -1.84485 68.9713
lradius 41.5306
lwrist 23.7192
lhand -28.499 -19.6308
lfingers 7.12502
lthumb -1.86789 10.3408
rfemur -94.8927 -18.3859 10.0675
rtibia 110.868
rfoot -30.9139 6.11699
rtoes 4.32391
lfemur -77.4437 39.47 -20.5641
ltibia 93.8312
lfoot -21.8533 4.20112
ltoes -30.3581
306
root -3.56961 11.5527 0.784865 50.2918 63.9013 29.1135
lowerback 43.4098 1.50679 2.54289
upperback 10.5208 4.40309 3.18388
thorax -8.71278 2.37698 0.175724
lowerneck -27.5949 -13.4468 -10.1094
upperneck 17.6663 -16.2522 7.1167
head 11.6457 -7.17902 1.16625
rclavicle -3.81667e-014 -1.27222e-014
rhumerus 61.8308 -21.5482 -81.1695
rradius 28.2109
rwrist -33.3128
rhand -18.7626 -41.2684
rfingers 7.12502
rthumb 7.53431 -71.1142
lclavicle -3.81667e-014 -1.27222e-014
lhumerus -17.6176 -1.83456 68.9072
lradius 41.5944
lwrist 23.7949
lhand -28.3922 -19.727
lfingers 7.12502
lthumb -1.76471 10.2455
rfemur -94.9049 -18.4049 9.96794
rtibia 111.07
rfoot -30.9217 5.80245
rtoes 3.59822
lfemur -77.5163 39.4802 -20.6745
ltibia 93.9326
lfoot -21.9059 4.28507
ltoes -30.8051
307
root -3.57114 11.5388 0.794151 50.5981 63.9181 29.4819
lowerback 43.4399 1.67163 2.38322
upperback 10.5028 4.52397 3.10523
thorax -8.74539 2.43312 0.120171
lowerneck -27.5444 -13.4438 -10.0973
upperneck 17.8213 -16.2595 7.08099
head 11.6926 -7.18268 1.14925
rclavicle -5.40694e-014 5.40694e-014
rhumerus 61.5509 -21.2019 -80.5516
rradius 28.3967
rwrist -33.9157
rhand -17.5427 -40.8326
rfingers 7.12502
rthumb 8.71165 -70.6328
lclavicle -5.40694e-014 5.40694e-014
lhumerus -17.4985 -2.06175 68.8122
lradius 41.7846
lwrist 23.9415
lhand -28.5107 -19.3617
lfingers 7.12502
lthumb -1.87914 10.6098
rfemur -95.0175 -18.3526 9.83628
rtibia 111.328
rfoot -30.9825 5.45617
rtoes 2.58113
lfemur -77.5978 39.5429 -20.8636
ltibia 93.9845
lfoot -21.8609 4.27583
ltoes -30.9372
308
root -3.57162 11.528 0.804026 51.1893 64.0257 30.095
lowerback 43.4168 1.76001 2.28945
upperback 10.4517 4.58133 3.03923
thorax -8.79695 2.45943 0.0714914
lowerneck -27.3739 -13.4034 -10.0561
upperneck 17.8537 -16.2147 6.99167
head 11.6592 -7.1759 1.12869
rclavicle -6.04305e-014 -1.74931e-014
rhumerus 61.0548 -20.7629 -79.5974
rradius 28.7027
rwrist -34.6531
rhand -16.7112 -40.5554
rfingers 7.12502
rthumb 9.51398 -70.3206
lclavicle -6.04305e-014 -1.74931e-014
lhumerus -17.3746 -2.19119 68.793
lradius 41.7857
lwrist 23.8098
lhand -28.7346 -19.493
lfingers 7.12502
lthumb -2.09544 10.4764
rfemur -95.1726 -18.4882 9.71964
rtibia 111.616
rfoot -30.9767 5.39888
rtoes 2.50363
lfemur -77.7402 39.4086 -21.0736
ltibia 94.0082
lfoot -21.8075 4.15613
ltoes -30.7623
